<?xml version="1.0" standalone="no"?>
<!DOCTYPE svg PUBLIC "-//W3C//DTD SVG 20010904//EN"
 "http://www.w3.org/TR/2001/REC-SVG-20010904/DTD/svg10.dtd">
<svg version="1.0" xmlns="http://www.w3.org/2000/svg"
 width="500.000000pt" height="500.000000pt" viewBox="0 0 500.000000 500.000000"
 preserveAspectRatio="xMidYMid meet">

<g transform="translate(0.000000,500.000000) scale(0.100000,-0.100000)"
fill="#000000" stroke="none">
<path d="M2365 4364 c-119 -17 -174 -30 -280 -65 -340 -112 -601 -340 -763
-665 -108 -216 -148 -398 -139 -628 6 -159 31 -275 90 -416 80 -193 141 -277
347 -480 199 -195 200 -198 209 -442 l6 -167 30 -31 c16 -17 45 -35 65 -41 23
-6 230 -9 590 -7 605 3 590 2 634 61 19 25 22 47 27 190 9 229 28 274 179 414
176 162 262 268 336 415 151 301 174 626 67 948 -39 117 -105 255 -163 339
-142 209 -371 391 -608 485 -167 67 -267 87 -442 91 -85 2 -168 1 -185 -1z
m333 -410 c93 -30 176 -78 205 -116 18 -24 19 -32 8 -67 -20 -69 -67 -78 -160
-31 -142 72 -257 88 -391 53 -57 -14 -69 -14 -95 -2 -64 31 -61 120 5 154 98
50 292 55 428 9z"/>
<path d="M2014 1271 c-80 -20 -136 -80 -154 -167 -29 -135 63 -273 208 -310
63 -16 70 -21 106 -71 133 -188 465 -206 632 -35 20 20 42 49 49 63 11 19 27
28 68 38 137 30 229 140 228 272 0 63 -17 107 -60 152 -59 64 -39 62 -566 64
-264 1 -494 -2 -511 -6z m942 -206 c15 -23 15 -27 -3 -57 -39 -68 -44 -69
-466 -66 l-379 3 -34 37 c-37 41 -44 81 -16 97 11 7 174 11 449 11 l433 0 16
-25z"/>
</g>
</svg>
